<?xml version="1.0" standalone="no"?>
<!DOCTYPE svg PUBLIC "-//W3C//DTD SVG 20010904//EN"
 "http://www.w3.org/TR/2001/REC-SVG-20010904/DTD/svg10.dtd">
<svg version="1.0" xmlns="http://www.w3.org/2000/svg"
 width="500.000000pt" height="500.000000pt" viewBox="0 0 500.000000 500.000000"
 preserveAspectRatio="xMidYMid meet">
<metadata>
Created by potrace 1.14, written by Peter Selinger 2001-2017
</metadata>
<g transform="translate(0.000000,500.000000) scale(0.100000,-0.100000)"
fill="#000000" stroke="none">
<path d="M1965 4523 c-16 -2 -61 -13 -100 -25 -269 -79 -474 -294 -541 -568
-24 -100 -24 -259 1 -363 l19 -78 -25 -23 c-88 -84 -179 -247 -205 -368 -41
-192 -12 -398 77 -556 33 -59 100 -152 109 -152 3 0 5 -44 5 -97 1 -54 4 -111
7 -128 36 -180 117 -330 238 -443 54 -51 146 -111 218 -144 107 -48 211 -66
400 -68 91 0 168 -3 171 -6 3 -2 5 -213 6 -468 l0 -463 29 -37 c70 -93 202
-85 261 15 19 33 20 53 21 494 0 448 1 460 20 462 10 1 96 4 189 6 94 3 184 8
200 11 266 60 469 225 571 466 17 41 34 89 38 105 3 17 9 41 12 55 3 14 7 72
8 129 l3 103 41 52 c172 212 214 531 104 791 -31 73 -108 188 -155 233 -33 33
-34 34 -21 71 27 80 38 272 20 360 -52 245 -198 442 -411 552 -38 20 -87 42
-109 49 -193 62 -407 48 -587 -38 l-79 -38 -77 38 c-113 54 -181 70 -313 73
-63 1 -128 0 -145 -2z m245 -322 c60 -17 113 -45 177 -94 82 -61 163 -60 230
3 38 35 128 79 191 94 213 50 433 -54 527 -250 19 -38 37 -88 41 -110 18 -104
-1 -225 -48 -318 -25 -48 -26 -111 -4 -153 9 -18 41 -50 70 -72 126 -93 197
-229 197 -381 1 -135 -53 -256 -161 -361 -56 -54 -67 -89 -54 -177 18 -126 1
-225 -54 -322 -62 -108 -178 -195 -297 -223 -39 -9 -115 -14 -215 -13 l-154 1
0 305 1 305 197 197 c108 108 201 209 206 223 39 104 -31 215 -137 215 -62 0
-84 -12 -160 -87 -122 -119 -108 -136 -108 134 1 242 -4 284 -41 324 -48 53
-144 62 -204 19 -64 -45 -66 -60 -65 -439 0 -187 -2 -341 -5 -341 -3 0 -37 32
-75 71 -39 38 -84 79 -100 89 -43 27 -97 30 -142 10 -49 -22 -72 -48 -87 -101
-24 -82 -14 -99 199 -312 106 -106 197 -202 202 -213 5 -10 9 -104 8 -209 l-1
-190 -159 -1 c-88 0 -178 4 -200 8 -131 28 -270 140 -325 262 -45 101 -54 174
-35 299 12 81 1 109 -70 182 -134 139 -180 315 -126 483 29 89 83 165 165 232
37 30 75 69 83 85 24 44 18 102 -15 175 -51 112 -60 220 -27 332 47 162 194
297 355 327 61 11 165 7 220 -8z"/>
</g>
</svg>
